<?xml version="1.0" encoding="utf-8"?>
<!-- Generator: Adobe Illustrator 19.2.1, SVG Export Plug-In . SVG Version: 6.00 Build 0)  -->
<svg version="1.1" id="Layer_1" xmlns="http://www.w3.org/2000/svg" xmlns:xlink="http://www.w3.org/1999/xlink" x="0px" y="0px"
	 viewBox="0 0 100 100" style="enable-background:new 0 0 100 100;" xml:space="preserve">
<style type="text/css">
	.st0{display:none;}
	.st1{display:inline;fill:#333333;}
	.st2{fill:#333333;}
	.st3{fill:url(#SVGID_1_);}
	.st4{fill:url(#SVGID_2_);}
	.st5{fill:url(#SVGID_3_);}
</style>
<text transform="matrix(1 0 0 1 -190.8633 247.166)" style="display:none;fill:#333333; font-family:'DIN-Light'; font-size:127.2382px;">ROBIDO</text>
<g>
	<g>
		<path class="st2" d="M15.3,97.6h-1.8l-4.9-9.4H3.1v9.4H1.6V77.2h7.7c1.1,0,2.1,0.2,3,0.6c0.9,0.4,1.6,1,2.1,1.9
			c0.5,0.8,0.8,1.8,0.8,2.9c0,1.5-0.4,2.7-1.2,3.7c-0.8,1-2,1.6-3.4,1.8L15.3,97.6z M13.6,82.7c0-1.3-0.4-2.4-1.2-3.1
			c-0.8-0.7-1.9-1-3.3-1h-6v8.2h6c0.7,0,1.3-0.1,1.8-0.3c0.5-0.2,1-0.4,1.4-0.8c0.4-0.3,0.7-0.8,0.9-1.3
			C13.5,84,13.6,83.4,13.6,82.7z"/>
		<path class="st2" d="M33.5,87.4c0,1.8,0,3.2-0.1,4c-0.1,0.9-0.2,1.6-0.5,2.3c-0.3,0.7-0.7,1.3-1.3,1.9c-0.7,0.7-1.4,1.2-2.3,1.5
			c-0.9,0.4-1.8,0.5-2.8,0.5c-1,0-1.9-0.2-2.8-0.5c-0.9-0.4-1.7-0.9-2.3-1.5c-0.6-0.6-1-1.2-1.3-1.9c-0.3-0.7-0.4-1.4-0.5-2.3
			c-0.1-0.9-0.1-2.2-0.1-4c0-1.8,0-3.2,0.1-4c0.1-0.9,0.2-1.6,0.5-2.3c0.3-0.7,0.7-1.3,1.3-1.9c0.7-0.7,1.4-1.2,2.3-1.5
			c0.9-0.4,1.8-0.5,2.8-0.5c1,0,1.9,0.2,2.8,0.5c0.9,0.4,1.6,0.9,2.3,1.5c0.6,0.6,1,1.2,1.3,1.9c0.3,0.7,0.4,1.4,0.5,2.3
			C33.4,84.2,33.5,85.6,33.5,87.4z M31.9,87.4c0-1.6,0-2.8-0.1-3.7c-0.1-0.8-0.2-1.6-0.4-2.1c-0.2-0.6-0.6-1.1-1-1.6
			c-0.5-0.5-1.1-0.9-1.8-1.2c-0.7-0.3-1.3-0.4-2.1-0.4c-0.7,0-1.4,0.1-2.1,0.4c-0.7,0.3-1.3,0.7-1.8,1.2c-0.4,0.4-0.6,0.7-0.8,1.1
			c-0.2,0.4-0.4,0.9-0.5,1.5c-0.1,0.6-0.2,1.3-0.2,2c0,0.8,0,1.7,0,2.8c0,1.6,0,2.8,0.1,3.7c0.1,0.8,0.2,1.6,0.4,2.1
			c0.2,0.6,0.6,1.1,1,1.6c0.5,0.5,1.1,0.9,1.8,1.2c0.7,0.3,1.4,0.4,2.1,0.4c0.7,0,1.4-0.1,2.1-0.4c0.7-0.3,1.2-0.7,1.8-1.2
			c0.5-0.5,0.8-1,1.1-1.6c0.2-0.6,0.4-1.3,0.4-2.1C31.9,90.2,31.9,89,31.9,87.4z"/>
		<path class="st2" d="M52.6,92c0,1.8-0.5,3.1-1.6,4.1c-1.1,1-2.5,1.4-4.4,1.4h-7.7V77.2h7.5c1.1,0,2.2,0.2,3,0.6
			c0.9,0.4,1.6,1,2.1,1.8c0.5,0.8,0.8,1.8,0.8,2.8c0,1.1-0.3,2-0.9,2.8c-0.6,0.8-1.3,1.4-2.3,1.7c1.1,0.4,2,1,2.6,1.9
			C52.3,89.8,52.6,90.9,52.6,92z M50.8,82.6c0-0.9-0.2-1.6-0.6-2.2c-0.4-0.6-0.9-1-1.6-1.3c-0.7-0.3-1.4-0.4-2.3-0.4h-5.8v7.9h5.8
			c1.3,0,2.4-0.3,3.2-1C50.4,84.8,50.8,83.9,50.8,82.6z M51.1,92c0-0.9-0.2-1.6-0.6-2.2c-0.4-0.6-0.9-1.1-1.6-1.4
			c-0.7-0.3-1.5-0.5-2.4-0.5h-6v8.3h6c0.9,0,1.8-0.2,2.4-0.5c0.7-0.3,1.2-0.8,1.6-1.4C50.9,93.6,51.1,92.9,51.1,92z"/>
		<path class="st2" d="M59.7,97.6h-1.5V77.2h1.5V97.6z"/>
		<path class="st2" d="M79.8,87.1v0.7c0,1.8-0.1,3.3-0.4,4.7c-0.2,1.3-0.8,2.4-1.6,3.3c-0.4,0.4-0.9,0.7-1.4,1
			c-0.5,0.3-1.1,0.5-1.7,0.6c-0.6,0.1-1.3,0.2-2,0.2h-6.8V77.2h6.8c0.7,0,1.4,0.1,2,0.2c0.6,0.1,1.2,0.4,1.7,0.6
			c0.5,0.3,1,0.6,1.4,1c0.8,0.8,1.4,1.8,1.6,3c0.2,1.2,0.4,2.7,0.4,4.3V87.1z M78.3,87.1v-0.9c0-1.4-0.1-2.6-0.3-3.6
			c-0.2-1-0.6-1.8-1.2-2.4c-1-1.1-2.5-1.6-4.4-1.6h-4.9v17.6h4.9c1.9,0,3.4-0.5,4.4-1.6c0.6-0.6,1.1-1.5,1.2-2.6
			c0.2-1.1,0.3-2.4,0.3-4V87.1z"/>
		<path class="st2" d="M98.4,87.4c0,1.8,0,3.2-0.1,4c-0.1,0.9-0.2,1.6-0.5,2.3c-0.3,0.7-0.7,1.3-1.3,1.9c-0.7,0.7-1.4,1.2-2.3,1.5
			c-0.9,0.4-1.8,0.5-2.8,0.5c-1,0-1.9-0.2-2.8-0.5c-0.9-0.4-1.7-0.9-2.3-1.5c-0.6-0.6-1-1.2-1.3-1.9c-0.3-0.7-0.4-1.4-0.5-2.3
			c-0.1-0.9-0.1-2.2-0.1-4c0-1.8,0-3.2,0.1-4c0.1-0.9,0.2-1.6,0.5-2.3c0.3-0.7,0.7-1.3,1.3-1.9c0.7-0.7,1.4-1.2,2.3-1.5
			c0.9-0.4,1.8-0.5,2.8-0.5c1,0,1.9,0.2,2.8,0.5c0.9,0.4,1.6,0.9,2.3,1.5c0.6,0.6,1,1.2,1.3,1.9c0.3,0.7,0.4,1.4,0.5,2.3
			C98.4,84.2,98.4,85.6,98.4,87.4z M96.9,87.4c0-1.6,0-2.8-0.1-3.7c-0.1-0.8-0.2-1.6-0.4-2.1c-0.2-0.6-0.6-1.1-1-1.6
			c-0.5-0.5-1.1-0.9-1.8-1.2c-0.7-0.3-1.3-0.4-2.1-0.4c-0.7,0-1.4,0.1-2.1,0.4c-0.7,0.3-1.3,0.7-1.8,1.2c-0.4,0.4-0.6,0.7-0.8,1.1
			c-0.2,0.4-0.4,0.9-0.5,1.5c-0.1,0.6-0.2,1.3-0.2,2c0,0.8,0,1.7,0,2.8c0,1.6,0,2.8,0.1,3.7c0.1,0.8,0.2,1.6,0.4,2.1
			c0.2,0.6,0.6,1.1,1,1.6c0.5,0.5,1.1,0.9,1.8,1.2c0.7,0.3,1.4,0.4,2.1,0.4c0.7,0,1.4-0.1,2.1-0.4c0.7-0.3,1.2-0.7,1.8-1.2
			c0.5-0.5,0.8-1,1.1-1.6c0.2-0.6,0.4-1.3,0.4-2.1C96.9,90.2,96.9,89,96.9,87.4z"/>
	</g>
	<linearGradient id="SVGID_1_" gradientUnits="userSpaceOnUse" x1="22.2334" y1="69.207" x2="22.2334" y2="2.4576">
		<stop  offset="0" style="stop-color:#E95A26"/>
		<stop  offset="0.596" style="stop-color:#FAA21D"/>
	</linearGradient>
	<polygon class="st3" points="38.9,53.6 21.1,35.8 38.9,18 38.9,2.5 5.5,35.8 38.9,69.2 	"/>
	<linearGradient id="SVGID_2_" gradientUnits="userSpaceOnUse" x1="49.3473" y1="70" x2="49.3473" y2="2">
		<stop  offset="0" style="stop-color:#333333"/>
		<stop  offset="1" style="stop-color:#676868"/>
	</linearGradient>
	<path class="st4" d="M30.3,43h15l13,27h16L60.5,40.1c3.6-1.6,6.4-4.5,8.4-8c2-3.5,3.1-7.5,3.1-11.5c0-5.5-1.8-9.7-5.4-13.4
		C63,3.5,58.4,2,53,2H41.4l0,12h7.7c2.4,0,4.5,0.3,6.1,1.7c1.7,1.4,2.5,3,2.5,5.3c0,2.3-0.8,4.2-2.5,5.7c-1.7,1.5-3.7,2.3-6.1,2.3
		H30.5l-6.1,7.1L30.3,43z"/>
	<linearGradient id="SVGID_3_" gradientUnits="userSpaceOnUse" x1="82.1588" y1="60.6394" x2="82.1588" y2="9.784">
		<stop  offset="0" style="stop-color:#E95A26"/>
		<stop  offset="0.596" style="stop-color:#FAA21D"/>
	</linearGradient>
	<path class="st5" d="M72.9,27.3l8.6,8.6L67.3,50l4.9,10.6L97,35.8l-26-26c1.9,3.2,2.8,6.7,2.8,10.8C73.8,22.9,73.5,25.1,72.9,27.3z
		"/>
</g>
</svg>
