<svg xmlns="http://www.w3.org/2000/svg" viewBox="0 0 372.96 275"><defs><style>.cls-1{isolation:isolate;}.cls-2,.cls-3{fill:#fff;}.cls-2{mix-blend-mode:darken;}</style></defs><title>logo-white</title><g class="cls-1"><g id="Layer_1" data-name="Layer 1"><polygon class="cls-2" points="136.05 209.99 63.54 137.48 136.05 64.98 136.05 1.44 0 137.48 136.05 273.54 136.05 209.99"/><path class="cls-3" d="M103.06,166h61.19l53.17,111h65L226.35,156c14.55-6.53,26-17.87,34.31-32.28a92.34,92.34,0,0,0,12.48-46.55c0-22.28-7.35-39-22.06-54.32S217.88,2,195.6,2H148.4l0.09,49h31.35c9.84,0,18.2,1,25.07,6.6s10.3,12.22,10.3,21.66-3.43,18.4-10.3,24.45S189.69,114,179.85,114H104L79.11,140.21Z" transform="translate(-2.23 -2)"/><path class="cls-2" d="M276.77,104.61l34.88,34.88-57.76,57.76,20.17,43.37L375.19,139.48,269,33.3c7.85,13,11.59,27.47,11.59,43.85A99.66,99.66,0,0,1,276.77,104.61Z" transform="translate(-2.23 -2)"/></g></g></svg>